<?xml version="1.0" standalone="no"?>
<!DOCTYPE svg PUBLIC "-//W3C//DTD SVG 20010904//EN"
 "http://www.w3.org/TR/2001/REC-SVG-20010904/DTD/svg10.dtd">
<svg version="1.0" xmlns="http://www.w3.org/2000/svg"
 width="1280.000000pt" height="888.000000pt" viewBox="0 0 1280.000000 888.000000"
 preserveAspectRatio="xMidYMid meet">

<g transform="translate(0.000000,888.000000) scale(0.100000,-0.100000)"
fill="#000000" stroke="none">
<path d="M6815 8458 c-16 -6 -48 -23 -70 -38 -46 -32 -173 -163 -225 -232 -19
-26 -37 -47 -40 -47 -3 0 -34 36 -70 81 -132 165 -224 181 -319 55 -55 -72
-98 -169 -118 -263 -9 -43 -18 -81 -19 -83 -2 -1 -39 9 -84 24 -113 38 -214
34 -285 -10 -130 -80 -142 -281 -28 -455 19 -30 44 -65 55 -76 l20 -22 -44
-30 c-77 -54 -128 -125 -128 -179 0 -67 54 -149 127 -194 19 -12 32 -27 29
-34 -7 -20 -286 -427 -307 -450 -18 -19 -28 -10 -622 590 l-604 610 -6 -440
c-16 -1044 -18 -1096 -38 -1090 -11 4 -119 59 -241 124 -123 65 -286 151 -363
191 -205 107 -925 485 -1030 540 -49 26 -191 100 -315 165 -334 175 -993 521
-1087 571 -84 45 -98 47 -64 10 10 -12 96 -124 191 -251 96 -126 237 -313 314
-415 180 -237 405 -534 550 -725 62 -82 202 -267 311 -410 108 -143 255 -336
326 -430 71 -93 175 -231 232 -305 279 -366 479 -632 483 -644 4 -10 -15 -16
-73 -24 -43 -6 -195 -27 -338 -47 -143 -19 -372 -51 -510 -70 -367 -51 -726
-100 -1020 -140 -894 -122 -966 -133 -971 -138 -2 -2 288 -156 646 -342 l650
-339 -113 -115 c-188 -192 -331 -404 -431 -639 -53 -123 -115 -325 -133 -432
-23 -134 -23 -406 0 -525 120 -621 627 -1098 1254 -1180 142 -19 247 -19 387
0 155 21 272 56 422 130 147 72 280 169 423 312 46 46 86 82 88 79 2 -2 13
-44 23 -92 56 -266 166 -455 310 -530 47 -24 67 -28 135 -29 95 0 135 16 201
83 110 109 157 285 170 627 5 127 10 164 35 245 16 52 36 104 45 115 15 18 16
-5 11 -310 -7 -378 -4 -406 64 -537 89 -170 275 -281 474 -282 94 0 141 20
206 87 37 37 109 161 109 186 0 5 4 21 9 34 l10 25 68 -36 c62 -34 75 -37 148
-37 70 0 87 4 134 30 69 38 112 88 158 183 0 2 18 -5 40 -16 218 -111 552 -86
791 59 46 28 85 49 87 47 1 -1 13 -23 25 -48 69 -136 190 -264 287 -300 117
-44 248 -10 334 89 43 48 99 156 99 189 0 36 15 33 76 -14 90 -70 129 -87 215
-92 66 -4 84 -1 131 20 30 14 70 39 89 56 l36 31 22 -23 c62 -66 237 -121 361
-114 177 11 302 133 330 323 32 225 49 327 54 332 8 8 11 -3 51 -172 42 -173
68 -228 147 -308 133 -134 317 -150 463 -39 81 61 143 146 168 230 11 39 24
72 27 72 4 0 17 -49 29 -109 29 -136 57 -197 119 -260 121 -121 292 -144 411
-57 l33 25 49 -39 c27 -21 75 -51 106 -67 49 -24 70 -28 138 -28 98 0 140 20
213 99 92 102 93 108 99 576 7 496 5 678 -7 750 l-10 54 59 61 c104 107 158
205 185 338 35 167 7 318 -86 469 -13 20 -20 39 -17 42 3 3 153 31 335 61 181
31 448 77 594 101 146 25 285 49 310 53 l45 8 -60 27 c-33 15 -123 55 -200 88
-77 34 -180 79 -230 100 -49 22 -182 79 -295 128 -460 198 -942 408 -945 412
-3 2 4 47 15 99 10 52 22 131 26 174 l7 80 256 260 c140 143 380 386 533 540
153 154 274 281 269 283 -4 1 -229 -54 -498 -123 -270 -69 -495 -125 -502
-125 -8 0 -11 47 -11 160 0 249 -37 385 -132 480 -58 58 -105 79 -204 92 -46
7 -84 15 -84 20 0 5 6 23 14 41 7 18 87 205 176 417 89 212 194 459 232 550
79 185 145 341 241 570 36 85 81 193 101 239 20 46 35 87 34 91 -2 4 -228
-177 -503 -402 -275 -225 -563 -460 -640 -523 -77 -62 -207 -168 -290 -236
-82 -67 -169 -137 -192 -156 l-41 -34 -95 113 c-216 259 -402 394 -599 434
-90 18 -145 8 -177 -33 -29 -36 -26 -63 13 -141 77 -153 146 -415 146 -556 0
-82 -23 -183 -69 -301 -35 -91 -102 -209 -112 -198 -3 5 -65 123 -136 263
-214 419 -384 751 -424 824 -43 79 -29 88 -119 -74 -89 -161 -77 -156 -115
-46 -18 53 -45 114 -59 137 -26 38 -26 42 -12 64 30 46 20 66 -66 130 -81 60
-187 170 -175 181 3 4 73 8 154 10 170 5 224 19 276 69 49 48 61 91 54 195
-11 151 -60 265 -140 324 -55 40 -178 23 -258 -35 -14 -10 -22 -5 -53 28 -44
49 -74 58 -121 39 l-35 -15 0 52 c0 71 -16 122 -50 160 -24 27 -35 32 -72 32
-51 0 -118 -31 -175 -80 l-40 -34 -6 162 c-2 89 -8 170 -12 180 -17 41 -95 58
-160 35z m101 -1056 c108 -34 221 -126 319 -262 l40 -54 7 47 c7 50 49 116 95
151 24 18 24 17 91 -54 36 -40 95 -94 131 -121 35 -27 62 -49 60 -50 -2 0 -56
-1 -119 -2 -107 -2 -120 -4 -183 -34 -71 -34 -187 -137 -187 -167 0 -30 35
-16 94 39 71 66 161 113 236 121 50 5 59 3 101 -25 56 -38 100 -115 130 -228
17 -63 23 -126 29 -323 8 -224 17 -297 44 -370 4 -10 -6 -23 -29 -38 l-35 -22
0 52 c0 29 -7 80 -15 113 -12 49 -12 81 -4 168 12 128 -2 301 -31 386 -34 96
-105 161 -175 161 -43 0 -117 -50 -154 -103 -55 -81 -73 -141 -78 -267 l-6
-115 -106 -36 c-58 -19 -114 -39 -124 -43 -17 -8 -18 -4 -12 51 4 32 8 128 9
213 1 126 -2 165 -17 207 -20 57 -83 135 -128 158 -103 54 -259 -46 -344 -220
-42 -86 -64 -166 -72 -268 -6 -74 -7 -78 -27 -73 -147 43 -237 44 -336 7 -76
-29 -162 -99 -187 -152 -29 -63 -43 -137 -43 -233 0 -107 28 -215 86 -335 41
-84 59 -107 177 -228 73 -74 144 -153 160 -175 15 -23 40 -84 57 -137 l30 -96
-43 -34 c-62 -51 -155 -148 -205 -216 -147 -199 -186 -425 -112 -644 10 -30
17 -58 14 -60 -2 -2 -26 17 -54 43 -75 70 -127 91 -230 91 -128 0 -173 -25
-323 -176 -99 -101 -161 -149 -192 -149 -11 0 -4 47 14 86 10 23 55 95 98 160
104 155 197 310 230 381 35 76 38 179 7 237 l-21 38 23 57 c12 31 29 88 36
126 17 94 17 464 -1 671 -17 193 -10 519 14 672 29 189 150 483 263 642 101
142 300 312 447 381 69 32 112 44 265 73 54 10 226 -3 286 -22z m-2316 -528
c268 -258 687 -660 716 -687 l31 -28 142 176 c79 97 145 175 147 172 3 -2 0
-17 -6 -32 -20 -53 -41 -219 -50 -394 -8 -170 -4 -275 21 -611 23 -314 -17
-630 -80 -630 -25 0 -25 2 -7 60 38 126 31 261 -17 341 -40 66 -77 93 -122 92
-37 -1 -84 -25 -89 -46 -35 -122 -66 -201 -104 -257 -42 -64 -46 -67 -71 -57
-76 28 -170 -42 -236 -177 -70 -141 -70 -286 0 -515 38 -124 44 -194 19 -230
-19 -27 -55 -22 -93 12 -38 35 -52 83 -61 202 -5 60 -14 127 -20 147 -17 60
-71 130 -124 163 -48 29 -54 30 -165 30 l-116 1 -49 48 c-27 27 -78 62 -115
80 -57 27 -77 31 -148 31 -72 0 -84 -3 -107 -24 -49 -46 -32 -112 48 -182 22
-19 52 -51 67 -73 l28 -38 -18 -37 c-10 -20 -24 -54 -31 -76 l-12 -40 -86 0
c-80 0 -92 -3 -150 -34 -133 -72 -221 -227 -256 -447 l-11 -72 -72 48 c-257
173 -645 194 -1048 57 -98 -33 -264 -109 -357 -163 l-46 -26 -194 99 c-487
252 -569 296 -564 300 4 5 86 17 461 68 789 108 1394 190 1575 215 118 16 282
38 364 50 82 11 155 20 162 20 8 0 14 5 14 10 0 6 -82 118 -182 248 -101 131
-313 408 -473 616 -159 208 -317 413 -350 456 -33 43 -122 158 -197 256 -75
99 -303 395 -506 659 -203 264 -368 482 -366 483 3 4 153 -71 419 -208 83 -42
245 -126 360 -185 626 -321 958 -491 1110 -570 278 -144 713 -365 719 -365 3
0 6 303 6 672 l0 673 83 -81 c45 -44 138 -134 207 -200z m5830 -85 c-78 -189
-179 -436 -225 -549 -46 -113 -89 -217 -94 -232 -10 -27 -13 -28 -88 -28 -70
0 -284 -20 -381 -36 l-37 -6 3 88 c4 93 -8 185 -36 273 l-17 54 35 29 c126
105 976 763 978 758 1 -4 -61 -162 -138 -351z m-1582 217 c81 -32 207 -117
294 -196 77 -69 233 -254 295 -349 82 -124 133 -326 118 -465 l-6 -62 -70 -11
c-95 -15 -173 -55 -207 -106 -38 -57 -37 -160 2 -265 l27 -73 -30 -35 c-55
-61 -75 -112 -75 -184 -1 -74 30 -151 83 -212 17 -20 31 -37 31 -40 0 -2 -15
-11 -33 -21 -56 -30 -72 -69 -72 -173 0 -88 1 -94 47 -185 64 -129 183 -282
341 -441 72 -74 165 -171 205 -216 41 -45 78 -82 83 -82 16 0 10 40 -15 88
-33 66 -90 136 -221 272 -153 160 -271 320 -315 430 -20 48 -18 137 3 178 15
27 23 32 53 32 27 0 45 -9 82 -43 90 -83 334 -258 420 -301 53 -27 112 -32
119 -11 2 6 -23 23 -54 39 -145 71 -501 353 -564 447 -60 89 -86 236 -54 298
20 41 88 71 157 71 106 0 262 -64 431 -178 85 -57 112 -68 123 -51 10 18 -91
110 -168 153 -35 19 -137 65 -228 102 -91 36 -181 75 -201 85 -136 69 -143
255 -12 327 175 96 876 137 1053 60 84 -36 137 -106 177 -233 33 -110 21 -804
-23 -1235 -29 -285 -70 -456 -137 -568 -69 -117 -242 -251 -462 -360 -149 -73
-140 -70 -542 -192 l-331 -100 -372 2 -372 3 -33 115 c-58 202 -141 385 -244
540 -69 104 -225 263 -307 314 l-61 37 14 41 c7 22 16 60 20 84 4 34 11 45 27
49 11 3 136 30 276 60 140 30 296 64 347 76 l91 20 -33 72 c-71 155 -115 347
-115 502 0 145 52 392 115 548 14 34 50 103 80 152 123 205 185 385 185 541 0
156 -69 428 -146 574 -38 71 -40 80 -21 99 20 21 150 8 225 -23z m-1961 -106
c42 -25 79 -86 98 -157 13 -49 13 -87 5 -243 -6 -102 -13 -192 -17 -200 -3 -8
-12 23 -19 70 -18 108 -62 201 -112 235 -74 50 -175 24 -257 -67 -51 -57 -55
-50 -30 47 36 140 130 275 220 316 51 24 72 24 112 -1z m705 -110 c42 -43 63
-105 74 -215 l7 -70 -26 31 c-80 94 -207 80 -285 -31 l-35 -50 7 83 c11 133
61 235 140 283 40 24 72 16 118 -31z m-812 -249 c14 -28 12 -70 -6 -124 -18
-54 -57 -89 -93 -85 -38 5 -47 42 -27 113 27 92 98 146 126 96z m786 -9 c21
-14 34 -51 34 -100 0 -27 -2 -51 -5 -54 -8 -7 -99 23 -107 36 -13 18 -9 65 7
96 15 30 46 39 71 22z m653 -479 l231 -431 -25 -88 c-50 -173 -68 -304 -62
-464 5 -158 28 -266 85 -412 26 -68 28 -78 13 -82 -35 -11 -616 -136 -631
-136 -11 0 -21 25 -36 88 -38 154 -123 311 -240 441 l-58 64 34 28 c18 16 120
87 227 160 210 142 303 226 379 340 136 205 120 394 -39 476 -43 22 -66 27
-135 28 -90 1 -115 13 -114 57 0 19 37 123 121 342 7 16 13 27 15 25 1 -2 107
-198 235 -436z m-1857 306 c29 -6 109 -34 177 -61 140 -56 288 -98 342 -98 23
0 68 16 123 44 156 80 332 124 436 110 118 -15 176 -52 214 -133 18 -39 21
-65 21 -171 l0 -125 -67 -164 c-37 -91 -66 -166 -65 -168 2 -1 45 66 95 151
127 214 193 266 331 266 105 -1 180 -56 199 -147 19 -90 -17 -196 -107 -314
-70 -93 -141 -154 -314 -270 -83 -57 -195 -134 -247 -173 -91 -68 -288 -256
-435 -417 -87 -94 -154 -133 -236 -133 -45 -1 -64 5 -97 27 -104 69 -223 276
-293 512 -22 77 -53 162 -67 189 -15 26 -81 106 -148 176 -175 186 -224 267
-258 432 -51 245 27 412 215 462 67 18 113 19 181 5z m-934 -1113 c45 -51 55
-94 50 -209 -6 -151 -46 -229 -133 -263 -53 -20 -110 -7 -160 38 -50 44 -54
70 -15 110 50 52 110 160 139 250 14 46 30 89 34 96 15 23 54 13 85 -22z
m5630 -174 c-219 -253 -332 -381 -334 -379 -6 6 12 316 18 323 7 7 314 92 336
93 8 1 -1 -16 -20 -37z m-5974 -156 c-9 -23 15 -93 43 -127 36 -42 116 -79
172 -79 52 0 122 31 149 65 30 37 79 20 109 -39 28 -54 20 -122 -22 -206 -50
-99 -143 -254 -220 -365 -84 -121 -118 -191 -119 -243 -1 -50 19 -72 66 -72
49 0 99 35 202 140 159 163 222 197 336 181 37 -5 80 -16 96 -24 35 -18 100
-84 92 -93 -4 -3 -34 -1 -68 4 l-62 9 -15 -35 c-33 -78 -10 -184 50 -241 29
-27 96 -43 144 -35 l31 6 -9 -42 c-13 -57 -31 -89 -71 -126 -80 -76 -193 -105
-423 -109 -166 -3 -173 -4 -238 -33 -164 -75 -272 -254 -247 -407 29 -168 -6
-271 -105 -316 -64 -29 -73 -26 -68 24 4 34 -1 50 -26 89 -54 85 -122 107
-201 66 -48 -24 -55 -38 -65 -120 -4 -30 -11 -48 -19 -48 -27 0 -80 47 -103
90 -21 40 -23 55 -20 135 4 82 8 99 49 185 55 116 95 231 108 317 16 98 2 134
-84 218 -61 60 -92 80 -216 142 -86 43 -166 90 -195 116 -96 85 -130 188 -106
319 17 88 25 99 45 60 24 -46 68 -66 133 -59 71 7 111 32 140 86 25 48 31 129
13 175 -9 26 -9 26 38 28 110 4 154 -6 198 -44 63 -56 82 -108 93 -265 12
-166 62 -247 159 -260 52 -7 86 16 108 72 21 55 15 100 -34 255 -35 108 -37
123 -37 250 0 126 2 139 27 193 44 93 120 175 165 177 7 0 10 -6 7 -14z m-957
-230 c68 -32 136 -96 168 -159 28 -58 31 -93 11 -142 -17 -41 -48 -62 -103
-71 -36 -5 -45 -3 -66 18 -14 14 -27 42 -31 67 -10 66 -43 119 -117 193 -38
37 -69 76 -69 86 0 47 112 51 207 8z m2837 -484 c41 -81 117 -184 157 -213 37
-26 37 -33 -3 -50 -50 -20 -169 -145 -207 -217 -38 -73 -50 -163 -51 -380 0
-249 -19 -469 -50 -586 -16 -59 -31 -110 -34 -113 -3 -3 -42 0 -87 6 -45 6
-112 11 -149 11 -61 0 -217 -22 -252 -35 -20 -8 -64 91 -83 183 -26 133 -95
251 -217 370 -233 228 -478 284 -690 156 -31 -19 -75 -56 -98 -81 -44 -50 -52
-49 -19 3 29 48 103 110 168 141 52 25 69 27 236 34 187 8 257 20 350 63 99
45 163 126 180 224 5 34 13 45 33 53 14 6 48 26 75 45 l50 36 51 -28 c107 -59
236 -29 357 83 62 58 167 207 215 306 16 31 29 57 31 57 1 0 18 -30 37 -68z
m-3006 -38 c6 -2 12 -16 12 -32 0 -101 116 -248 243 -308 29 -14 40 -27 51
-63 23 -71 44 -158 60 -253 19 -109 71 -675 87 -943 7 -110 13 -201 14 -203 1
-1 33 5 71 14 92 21 257 15 335 -12 138 -49 263 -157 340 -293 l46 -80 41 64
c23 35 60 77 81 94 47 37 138 81 169 81 12 0 22 2 22 4 0 2 -28 33 -63 68 -74
75 -132 160 -192 283 -53 109 -71 163 -85 252 -43 262 154 471 404 432 75 -12
112 -28 195 -83 90 -60 174 -145 232 -234 105 -160 114 -325 29 -498 -31 -63
-56 -96 -112 -150 -41 -38 -92 -79 -114 -90 l-41 -20 22 -28 22 -27 44 52
c161 193 398 309 628 309 164 0 283 -42 361 -126 l49 -54 5 42 c14 113 48 665
57 933 12 342 15 359 103 453 110 118 259 147 397 76 60 -30 165 -126 189
-174 56 -109 53 -300 -15 -960 -14 -135 -26 -260 -28 -277 -3 -31 -2 -32 18
-19 150 98 270 158 354 176 56 12 63 16 87 57 41 70 150 179 207 207 63 32
152 35 212 7 49 -22 119 -93 145 -146 21 -43 60 -185 60 -217 0 -24 5 -23 43
6 55 42 165 88 229 95 178 21 311 -68 409 -274 34 -71 54 -103 62 -98 7 5 45
30 86 57 110 72 193 99 300 94 67 -3 99 -9 144 -30 72 -34 162 -119 224 -212
26 -39 49 -73 51 -76 2 -3 8 4 14 15 38 67 134 141 216 165 23 7 42 15 42 18
0 2 -22 24 -48 47 -135 122 -280 410 -297 590 -17 192 105 360 287 394 118 21
242 -19 373 -124 247 -195 324 -446 209 -685 -38 -81 -128 -181 -205 -231
l-48 -31 24 -36 c43 -66 45 -101 40 -662 -5 -565 -4 -559 -56 -631 -30 -42
-88 -69 -150 -69 -69 0 -147 42 -229 125 l-63 63 -31 -41 c-61 -81 -161 -110
-249 -74 -46 20 -117 85 -133 122 -6 17 -29 102 -49 190 -45 196 -106 415
-116 415 -3 0 -9 -8 -12 -17 -3 -10 -22 -65 -42 -123 -20 -58 -49 -151 -65
-207 -34 -122 -40 -133 -99 -196 -79 -85 -174 -115 -273 -85 -45 13 -126 82
-157 132 -12 18 -44 127 -72 242 -67 273 -119 467 -128 477 -9 9 -41 -61 -77
-166 -33 -96 -59 -225 -89 -432 -26 -181 -33 -203 -84 -258 -65 -71 -175 -88
-313 -49 -84 24 -109 41 -153 100 -79 108 -136 405 -161 835 -4 65 -11 120
-15 123 -4 2 -30 -15 -56 -38 -27 -24 -76 -65 -110 -92 l-61 -49 85 -125 c95
-142 176 -299 198 -387 57 -225 -55 -395 -233 -355 -55 12 -126 62 -273 192
-37 32 -69 58 -72 58 -2 0 -7 -48 -9 -107 -9 -181 -72 -295 -180 -328 -87 -26
-151 0 -246 99 -67 69 -124 175 -157 289 -9 31 -18 57 -19 57 -1 0 -22 -18
-47 -41 -111 -102 -234 -167 -376 -200 -131 -30 -307 -24 -406 14 -72 28 -142
71 -194 120 l-33 31 0 -55 c0 -109 -49 -207 -121 -245 -15 -7 -54 -14 -86 -14
-49 0 -68 6 -120 36 -34 20 -85 61 -114 90 l-53 54 -17 -103 c-22 -127 -49
-201 -96 -262 -41 -54 -83 -75 -150 -75 -158 1 -325 105 -388 243 -43 93 -47
141 -34 397 17 341 -5 599 -52 608 -9 2 -41 -20 -72 -47 -101 -93 -187 -304
-187 -461 0 -111 -18 -321 -35 -399 -33 -158 -96 -257 -179 -280 -82 -22 -182
23 -247 112 -80 108 -146 320 -177 569 -9 76 -20 138 -23 138 -3 0 -26 -31
-52 -68 -99 -145 -330 -363 -483 -456 -91 -55 -234 -114 -348 -142 -137 -35
-387 -44 -529 -20 -385 65 -709 270 -919 578 -55 82 -142 258 -167 340 -86
284 -76 577 30 892 49 143 168 379 254 501 97 136 312 353 445 448 115 81 341
196 468 237 181 58 280 74 472 74 163 0 181 -2 265 -28 137 -42 218 -89 311
-181 65 -64 90 -98 124 -168 24 -48 44 -86 45 -85 0 2 -2 59 -6 128 -11 190
-10 351 2 395 31 119 90 223 152 267 53 38 133 51 195 32z m3880 -35 c132 -87
266 -265 387 -514 103 -211 159 -387 180 -566 l6 -56 -57 -7 c-82 -10 -253
-99 -321 -168 -29 -29 -62 -68 -75 -87 -18 -26 -37 -38 -83 -52 -33 -10 -63
-19 -67 -19 -4 0 -15 24 -24 53 -16 50 -16 65 1 233 23 246 31 542 16 629 -18
105 -59 181 -140 258 -38 35 -87 75 -110 88 -22 12 -41 25 -41 28 0 3 21 14
46 25 51 21 152 109 184 162 12 19 25 34 30 34 4 0 35 -18 68 -41z m-1512 -54
c16 -40 -114 -191 -201 -234 -58 -29 -134 -38 -173 -22 -50 21 -86 112 -66
165 5 13 22 16 78 16 93 0 194 22 270 59 71 34 85 36 92 16z m4848 -490 c250
-110 456 -202 456 -205 0 -3 -166 -31 -368 -63 l-368 -58 -87 55 c-248 155
-545 92 -678 -144 l-20 -36 -252 -38 c-139 -22 -256 -42 -260 -46 -10 -9 211
-370 226 -370 6 0 62 16 125 36 62 19 118 34 123 32 5 -2 22 -40 38 -84 29
-86 109 -242 166 -327 19 -29 35 -55 35 -58 0 -4 -11 -14 -24 -23 -25 -16 -26
-15 -103 62 -91 90 -140 121 -242 152 -120 37 -252 20 -389 -49 -34 -17 -66
-31 -71 -31 -5 0 -23 24 -39 54 -42 73 -128 164 -193 203 -126 75 -283 83
-431 20 l-37 -16 -12 37 c-40 127 -163 255 -276 288 l-53 15 0 43 c0 24 -3 57
-6 74 l-6 30 378 6 379 6 270 81 c417 124 481 146 610 211 218 109 402 249
479 365 l28 41 73 -31 c41 -18 279 -122 529 -232z m-6707 101 c133 -98 142
-161 55 -398 -37 -102 -52 -120 -52 -66 0 66 -33 314 -54 409 -12 54 -19 99
-15 99 4 0 34 -20 66 -44z m352 -853 c38 -46 40 -91 11 -187 -26 -83 -81 -146
-128 -146 -56 0 -63 47 -37 240 15 117 24 130 86 130 31 0 43 -6 68 -37z m315
-214 c20 -52 68 -149 107 -214 l71 -119 -43 -37 -44 -37 -29 36 c-92 115 -202
190 -358 245 -16 6 -15 11 11 59 15 29 30 63 33 75 4 14 16 24 34 28 60 13
114 37 141 63 23 22 29 24 34 12 4 -8 23 -58 43 -111z m-586 82 c9 -5 25 -12
34 -15 14 -4 17 -17 15 -85 l-1 -79 -31 -5 c-16 -3 -32 -3 -34 -1 -7 6 -14
194 -7 194 3 0 14 -4 24 -9z m3226 -57 c8 -21 8 -21 -9 -28 -11 -4 -15 1 -15
19 0 28 15 33 24 9z m-1542 -56 c-16 -16 -21 -8 -15 27 6 29 6 29 16 7 7 -16
7 -26 -1 -34z m588 12 c0 -36 -8 -37 -75 -10 l-50 20 52 -6 c43 -5 54 -4 59
10 9 24 14 19 14 -14z"/>
<path d="M6698 7210 c-107 -27 -265 -147 -303 -229 -32 -73 4 -121 52 -68 11
12 39 50 61 83 79 119 204 203 271 184 19 -5 44 -16 57 -25 34 -22 64 -20 64
6 0 39 -123 69 -202 49z"/>
<path d="M7353 6200 c-39 -20 -101 -69 -184 -147 -195 -184 -331 -289 -466
-358 -151 -78 -211 -29 -238 192 -10 78 -23 134 -40 171 -19 41 -22 58 -14 68
29 35 -24 58 -74 33 -26 -14 -97 -80 -97 -91 0 -13 27 -9 59 10 28 15 33 16
58 2 45 -25 62 -92 63 -245 1 -209 32 -328 116 -444 62 -88 105 -207 144 -400
11 -57 30 -119 41 -138 65 -104 194 -76 348 77 89 88 139 162 246 360 42 80
84 153 93 163 12 14 33 17 116 17 177 0 283 40 324 120 27 53 27 113 0 118
-14 3 -18 -3 -18 -26 0 -45 -39 -94 -100 -125 -49 -25 -63 -28 -137 -25 -50 2
-87 8 -95 16 -18 18 -16 123 7 330 22 197 15 284 -26 328 -29 31 -53 30 -126
-6z"/>
<path d="M5074 4645 c-18 -15 -18 -16 11 -40 51 -43 105 -58 194 -54 43 2 82
7 86 11 4 3 4 15 1 26 -6 17 -16 19 -94 18 -80 -1 -92 2 -130 27 -49 32 -43
31 -68 12z"/>
<path d="M5027 4518 c-28 -15 -19 -34 31 -66 56 -36 110 -52 174 -52 51 0 63
9 53 41 -6 17 -13 20 -36 15 -44 -9 -123 12 -167 44 -28 20 -43 25 -55 18z"/>
<path d="M5033 4327 c-29 -16 -15 -41 40 -68 33 -17 52 -20 100 -16 32 3 61 8
64 11 4 3 1 17 -5 31 -10 22 -14 24 -39 14 -35 -13 -84 -4 -115 20 -19 16 -28
17 -45 8z"/>
<path d="M4456 4252 c-3 -10 -22 -34 -41 -54 -31 -32 -52 -44 -107 -62 -11 -3
-18 -15 -18 -31 0 -32 19 -32 85 -1 80 37 157 136 124 157 -22 14 -37 10 -43
-9z"/>
<path d="M4551 4125 c-14 -41 -64 -82 -109 -91 -27 -6 -32 -11 -32 -36 0 -28
2 -30 28 -23 64 15 115 48 143 93 33 52 36 77 13 86 -26 10 -29 8 -43 -29z"/>
<path d="M4633 3980 c-11 -31 -65 -70 -96 -70 -14 0 -18 -6 -15 -27 2 -23 7
-27 28 -25 48 7 104 46 129 91 19 35 21 45 10 52 -26 16 -45 9 -56 -21z"/>
<path d="M5654 3979 c-13 -22 -16 -138 -4 -187 13 -55 82 -162 104 -162 8 0
19 7 26 15 10 12 7 20 -14 46 -60 71 -84 153 -67 229 9 38 8 47 -6 58 -21 15
-30 15 -39 1z"/>
<path d="M5500 3844 c-14 -67 -8 -111 26 -181 26 -53 42 -64 62 -40 8 10 5 26
-14 63 -22 43 -25 58 -21 122 3 62 2 74 -14 82 -26 15 -27 14 -39 -46z"/>
<path d="M5345 3799 c-4 -6 -7 -37 -7 -70 0 -49 5 -69 29 -106 15 -25 38 -52
50 -60 19 -13 23 -12 33 7 10 18 7 26 -19 55 -33 38 -46 88 -37 139 5 26 3 35
-10 40 -22 9 -32 8 -39 -5z"/>
<path d="M4746 3339 c-49 -12 -50 -13 -37 -37 9 -17 19 -18 90 -14 68 4 85 1
115 -16 33 -19 35 -20 50 -3 15 16 15 19 -2 34 -47 43 -129 56 -216 36z"/>
<path d="M4740 3184 c-68 -12 -70 -13 -61 -37 8 -21 13 -22 92 -19 75 3 89 1
132 -22 39 -21 52 -24 68 -15 20 10 20 11 2 31 -38 44 -158 75 -233 62z"/>
<path d="M4682 3011 c-41 -11 -45 -15 -38 -38 6 -17 15 -19 95 -15 86 4 106 0
187 -40 4 -2 13 7 21 19 15 22 14 24 -42 49 -63 29 -163 40 -223 25z"/>
<path d="M3848 3970 c-30 -23 -61 -85 -77 -155 -9 -38 -9 -92 -2 -215 6 -91
15 -385 21 -655 17 -818 31 -1087 81 -1515 35 -301 77 -476 139 -573 32 -52
72 -82 95 -73 43 16 73 166 84 420 10 221 28 305 96 452 105 230 288 370 403
310 62 -33 104 -98 130 -204 13 -56 16 -132 17 -467 0 -442 -2 -427 67 -491
42 -40 79 -59 148 -73 52 -11 56 -11 73 10 56 69 88 380 68 649 -31 393 -161
679 -351 772 -146 71 -349 54 -502 -42 -27 -16 -53 -30 -58 -30 -15 0 -18 33
-25 245 -10 324 -67 997 -101 1178 -33 176 -95 344 -154 410 -58 67 -108 82
-152 47z"/>
<path d="M7260 3669 c-32 -13 -87 -66 -106 -101 -10 -19 -14 -64 -14 -155 0
-158 -14 -433 -40 -788 -65 -900 -73 -1045 -61 -1178 21 -231 75 -388 165
-480 62 -65 92 -63 122 8 14 32 18 78 20 238 2 182 15 322 33 355 5 9 20 -3
50 -41 95 -124 430 -417 476 -417 37 0 48 30 35 98 -18 102 -95 243 -236 438
-87 120 -109 163 -100 195 3 13 36 46 73 74 77 58 375 313 416 356 31 34 37
88 11 113 -18 19 -11 19 -76 5 -94 -20 -293 -134 -481 -277 -77 -59 -103 -65
-113 -26 -10 40 8 275 61 774 15 138 29 339 32 461 l6 217 -46 49 c-75 80
-157 110 -227 82z"/>
<path d="M2744 3619 c-186 -20 -433 -103 -602 -204 -372 -222 -635 -557 -770
-985 -51 -163 -57 -202 -56 -390 1 -154 4 -186 27 -271 113 -427 471 -753 929
-846 129 -26 346 -24 478 6 188 41 329 111 478 235 278 232 458 514 438 685
-15 126 -75 119 -194 -23 -206 -246 -628 -491 -925 -537 -158 -25 -324 6 -433
81 -123 86 -226 272 -265 480 -18 97 -15 346 6 465 65 371 310 778 535 887
162 79 380 116 524 89 188 -35 301 -157 313 -340 5 -73 4 -81 -31 -155 -72
-157 -195 -315 -321 -416 -51 -41 -74 -52 -113 -57 -65 -7 -92 16 -92 81 0
115 179 347 340 439 22 12 40 30 40 39 0 29 -66 86 -107 94 -47 9 -129 -8
-190 -38 -25 -13 -77 -51 -114 -86 -114 -105 -166 -236 -157 -397 5 -91 32
-154 96 -219 63 -65 104 -81 207 -80 76 1 102 6 171 33 210 82 356 234 465
486 44 101 61 183 66 315 6 142 -15 257 -63 351 -30 60 -101 139 -162 181 -64
44 -190 86 -289 98 -98 11 -114 11 -229 -1z"/>
<path d="M2565 3076 c-161 -52 -212 -95 -330 -271 -171 -255 -244 -505 -232
-790 9 -211 55 -344 156 -446 75 -76 142 -101 266 -102 114 -1 180 14 319 70
261 104 422 220 671 481 66 69 118 99 185 105 25 2 45 8 45 13 -1 5 -4 145 -9
312 l-8 303 -25 -73 c-52 -153 -204 -403 -299 -489 -85 -78 -266 -174 -384
-204 -36 -10 -101 -17 -146 -16 -135 1 -224 41 -317 141 -242 261 -172 714
147 946 68 50 61 53 -39 20z m-344 -766 c19 -94 95 -226 175 -307 173 -177
401 -210 672 -98 48 20 94 39 102 42 29 10 -66 -68 -160 -131 -291 -195 -570
-271 -725 -196 -80 39 -143 157 -166 310 -22 151 6 394 62 525 12 30 12 30 20
-30 4 -33 13 -85 20 -115z m1309 -59 c0 -5 -7 -11 -14 -14 -10 -4 -13 -1 -9 9
6 15 23 19 23 5z"/>
<path d="M5453 3071 c-24 -12 -55 -37 -72 -62 -26 -35 -31 -51 -31 -98 1 -170
195 -496 317 -531 60 -18 87 -7 163 68 86 85 114 152 107 253 -7 114 -97 237
-236 328 -100 64 -171 76 -248 42z"/>
<path d="M10443 3071 c-24 -12 -55 -37 -73 -63 -30 -41 -32 -47 -27 -113 11
-179 195 -480 314 -515 58 -18 83 -8 153 57 80 73 112 136 118 229 4 61 1 80
-20 125 -35 74 -97 149 -171 205 -122 92 -207 114 -294 75z"/>
<path d="M8329 2651 c-24 -16 -60 -51 -80 -78 -71 -94 -67 -73 -53 -328 32
-595 64 -887 115 -1041 24 -74 37 -87 111 -108 101 -29 151 -17 162 37 3 12
15 90 26 172 51 359 127 582 246 721 25 29 59 57 75 63 91 32 135 -70 275
-644 55 -227 56 -230 96 -269 34 -33 44 -37 71 -32 17 4 48 23 68 42 30 30 42
53 64 132 78 275 191 546 241 578 93 61 187 -137 304 -641 33 -144 43 -173 65
-193 79 -68 125 34 125 280 0 320 -87 586 -244 744 -80 80 -131 102 -213 90
-100 -13 -246 -106 -358 -228 -31 -33 -58 -59 -60 -57 -2 2 -24 63 -50 134
-89 245 -151 338 -245 366 -56 17 -135 0 -208 -43 -59 -36 -175 -144 -239
-223 -49 -59 -45 -67 -63 133 -13 152 -40 293 -66 347 -19 40 -65 75 -100 75
-11 0 -40 -13 -65 -29z"/>
<path d="M6400 2311 c-116 -22 -248 -91 -342 -179 -123 -115 -197 -240 -223
-376 -28 -147 -17 -245 43 -371 99 -205 270 -298 497 -267 247 33 445 177 484
354 12 52 5 88 -18 88 -9 0 -49 -27 -90 -60 -124 -99 -285 -170 -385 -170
-147 0 -276 141 -276 301 0 137 57 265 166 375 91 92 145 114 280 114 87 0 97
-2 119 -25 63 -62 6 -224 -108 -306 -109 -79 -163 18 -65 118 24 24 58 53 76
65 36 22 38 43 6 64 -18 12 -27 11 -72 -12 -83 -41 -152 -143 -152 -223 0 -34
32 -85 66 -108 42 -27 120 -23 176 10 58 34 130 113 163 180 33 68 58 189 50
241 -9 55 -41 121 -68 139 -66 42 -228 66 -327 48z"/>
<path d="M5483 2029 c-51 -25 -88 -67 -116 -129 -26 -57 -35 -252 -17 -381 38
-278 122 -449 254 -520 80 -42 76 -70 76 527 l0 524 -77 0 c-59 0 -88 -5 -120
-21z"/>
<path d="M10494 2031 c-53 -24 -107 -89 -127 -152 -25 -75 -23 -293 3 -441 38
-221 99 -341 215 -423 98 -70 110 -50 102 184 -3 97 -1 291 5 431 7 163 8 284
2 335 l-9 80 -75 2 c-56 2 -85 -2 -116 -16z"/>
</g>
</svg>
