<svg width="100" height="45" viewBox="0 0 100 45" fill="none" xmlns="http://www.w3.org/2000/svg">
<path d="M57.4484 5.21465H59.0537V12.1868H57.4484V9.55563H55.4346V12.1868H53.8293V5.21465H55.4346V7.95032H57.4484V5.21465Z" fill="#FF0035"/>
<path d="M63.8522 12.1868L63.5767 11.3414H61.3825L61.0975 12.1868H59.3972L61.7719 5.21465H63.2917L65.543 12.1868H63.8522ZM61.9334 9.7361H63.0638L62.5128 8.04531L61.9334 9.7361Z" fill="#FF0035"/>
<path d="M70.173 12.1868H66.0221V5.20515H67.6274V10.5815H70.173V12.1868Z" fill="#FF0035"/>
<path d="M74.8166 12.1868L74.5412 11.3414H72.3469L72.062 12.1868H70.3617L72.7364 5.21465H74.2562L76.5074 12.1868H74.8166ZM72.8979 9.7361H74.0282L73.4773 8.04531L72.8979 9.7361Z" fill="#FF0035"/>
<path d="M81.1375 12.1868H76.9865V5.20515H78.5918V10.5815H81.1375V12.1868Z" fill="#FF0035"/>
<path d="M58.3032 18.0392H55.4346V19.0936H57.7618V20.6989H55.4346V21.8007H58.3032V23.4061H53.8293V16.4434L58.3032 16.4339V18.0392Z" fill="#FF0035"/>
<path d="M64.7612 16.3769L62.7095 19.7775L64.9417 23.4061H63.0515L61.7786 21.3353L60.5248 23.4061H58.6535L60.8287 19.787L58.739 16.3769H60.6197L61.7691 18.2387L62.8805 16.3769H64.7612Z" fill="#FF0035"/>
<path d="M69.9104 19.369C69.9104 19.768 69.8345 20.1448 69.6825 20.4994C69.5368 20.8477 69.331 21.1548 69.065 21.4208C68.8054 21.6868 68.5014 21.8989 68.1532 22.0572C67.8049 22.2092 67.4312 22.2884 67.0323 22.2947V23.4061H65.427V16.4339H67.0323C67.4312 16.4402 67.8049 16.5226 68.1532 16.6809C68.5014 16.8392 68.8054 17.0513 69.065 17.3173C69.331 17.5833 69.5368 17.8936 69.6825 18.2482C69.8345 18.5965 69.9104 18.9701 69.9104 19.369ZM67.0323 20.6894C67.2096 20.6831 67.3742 20.6451 67.5262 20.5754C67.6845 20.4994 67.8207 20.4044 67.9347 20.2904C68.0487 20.1701 68.1373 20.0308 68.2006 19.8725C68.2703 19.7142 68.3051 19.5464 68.3051 19.369C68.3051 19.1917 68.2703 19.0239 68.2006 18.8656C68.1373 18.7073 68.0487 18.5711 67.9347 18.4572C67.8207 18.3368 67.6845 18.2418 67.5262 18.1722C67.3742 18.0962 67.2096 18.055 67.0323 18.0487V20.6894Z" fill="#FF0035"/>
<path d="M73.874 16.4244C74.3553 16.4244 74.808 16.5162 75.2323 16.6999C75.6566 16.8835 76.0271 17.1336 76.3437 17.4503C76.6603 17.7606 76.9105 18.1279 77.0941 18.5521C77.2777 18.9764 77.3696 19.4292 77.3696 19.9105C77.3696 20.3918 77.2777 20.8445 77.0941 21.2688C76.9105 21.6931 76.6603 22.0635 76.3437 22.3802C76.0271 22.6905 75.6566 22.9374 75.2323 23.1211C74.808 23.3047 74.3553 23.3966 73.874 23.3966C73.3927 23.3966 72.9399 23.3047 72.5156 23.1211C72.0914 22.9374 71.7209 22.6905 71.4043 22.3802C71.094 22.0635 70.847 21.6931 70.6634 21.2688C70.4797 20.8445 70.3879 20.3918 70.3879 19.9105C70.3879 19.4292 70.4797 18.9764 70.6634 18.5521C70.847 18.1279 71.094 17.7606 71.4043 17.4503C71.7209 17.1336 72.0914 16.8835 72.5156 16.6999C72.9399 16.5162 73.3927 16.4244 73.874 16.4244ZM73.874 21.7912C74.1336 21.7912 74.3774 21.7438 74.6054 21.6488C74.8334 21.5474 75.0328 21.4113 75.2038 21.2403C75.3748 21.0693 75.5078 20.8699 75.6028 20.6419C75.7041 20.4139 75.7548 20.1701 75.7548 19.9105C75.7548 19.6508 75.7041 19.407 75.6028 19.1791C75.5078 18.9511 75.3748 18.7516 75.2038 18.5806C75.0328 18.4097 74.8334 18.2767 74.6054 18.1817C74.3774 18.0804 74.1336 18.0297 73.874 18.0297C73.6144 18.0297 73.3705 18.0804 73.1426 18.1817C72.9146 18.2767 72.7151 18.4097 72.5441 18.5806C72.3732 18.7516 72.237 18.9511 72.1357 19.1791C72.0407 19.407 71.9932 19.6508 71.9932 19.9105C71.9932 20.1701 72.0407 20.4139 72.1357 20.6419C72.237 20.8699 72.3732 21.0693 72.5441 21.2403C72.7151 21.4113 72.9146 21.5474 73.1426 21.6488C73.3705 21.7438 73.6144 21.7912 73.874 21.7912Z" fill="#FF0035"/>
<path d="M79.9566 21.6013C79.8743 21.6139 79.7919 21.6234 79.7096 21.6298C79.6273 21.6361 79.5418 21.6424 79.4532 21.6488V23.4061H77.8478V16.4529H79.4532C79.8521 16.4592 80.2257 16.5321 80.574 16.6714C80.9223 16.8107 81.2263 16.9975 81.4859 17.2318C81.7519 17.4661 81.9577 17.7384 82.1033 18.0487C82.2553 18.359 82.3313 18.6915 82.3313 19.0461C82.3313 19.4197 82.2521 19.768 82.0938 20.091C81.9355 20.4076 81.7139 20.683 81.4289 20.9174L82.9677 23.4061H81.0775L79.9566 21.6013ZM79.4532 20.034C79.6241 20.0276 79.7856 19.9991 79.9376 19.9485C80.0959 19.8915 80.2321 19.8187 80.346 19.73C80.4664 19.6413 80.5582 19.54 80.6215 19.426C80.6912 19.3057 80.726 19.1791 80.726 19.0461C80.726 18.9131 80.6912 18.7896 80.6215 18.6756C80.5582 18.5616 80.4664 18.4603 80.346 18.3717C80.2321 18.283 80.0959 18.2134 79.9376 18.1627C79.7856 18.1057 79.6241 18.074 79.4532 18.0677V20.034Z" fill="#FF0035"/>
<path d="M87.6723 16.4054V18.0202H86.333V23.4061H84.7277V18.0202H83.3978V16.4054H87.6723Z" fill="#FF0035"/>
<path d="M55.4343 34.8984H53.829V27.9167H55.4343V34.8984Z" fill="#FF0035"/>
<path d="M60.398 27.9262H62.0033V34.8984H60.265L57.9852 30.8329V34.8984H56.3799V27.9452H58.1277L60.398 32.0012V27.9262Z" fill="#FF0035"/>
<path d="M64.2694 27.8977C64.7317 27.9231 65.1655 28.0339 65.5707 28.2302C65.9824 28.4265 66.337 28.683 66.6346 28.9996C66.9386 29.3162 67.1761 29.6835 67.347 30.1015C67.5243 30.5194 67.613 30.9658 67.613 31.4408C67.613 31.9094 67.5275 32.3495 67.3565 32.7611C67.1855 33.1664 66.9481 33.5242 66.6441 33.8345C66.3465 34.1448 65.995 34.3949 65.5897 34.5849C65.1845 34.7686 64.7443 34.873 64.2694 34.8984H62.6641V27.8882H64.2694V27.8977ZM64.2694 33.2836C64.5164 33.2582 64.7443 33.1949 64.9533 33.0936C65.1686 32.9859 65.3523 32.853 65.5043 32.6946C65.6626 32.53 65.7861 32.34 65.8747 32.1247C65.9634 31.9094 66.0077 31.6814 66.0077 31.4408C66.0077 31.1938 65.9634 30.9595 65.8747 30.7379C65.7861 30.5099 65.6626 30.3104 65.5043 30.1394C65.3459 29.9621 65.1623 29.8197 64.9533 29.712C64.7443 29.598 64.5164 29.5284 64.2694 29.503V33.2836Z" fill="#FF0035"/>
<path d="M70.9956 27.9167C71.4769 27.9167 71.9297 28.0085 72.354 28.1922C72.7782 28.3758 73.1487 28.626 73.4653 28.9426C73.782 29.2529 74.0321 29.6202 74.2157 30.0445C74.3994 30.4687 74.4912 30.9215 74.4912 31.4028C74.4912 31.8841 74.3994 32.3368 74.2157 32.7611C74.0321 33.1854 73.782 33.5559 73.4653 33.8725C73.1487 34.1828 72.7782 34.4298 72.354 34.6134C71.9297 34.797 71.4769 34.8889 70.9956 34.8889C70.5144 34.8889 70.0616 34.797 69.6373 34.6134C69.213 34.4298 68.8426 34.1828 68.5259 33.8725C68.2156 33.5559 67.9687 33.1854 67.785 32.7611C67.6014 32.3368 67.5095 31.8841 67.5095 31.4028C67.5095 30.9215 67.6014 30.4687 67.785 30.0445C67.9687 29.6202 68.2156 29.2529 68.5259 28.9426C68.8426 28.626 69.213 28.3758 69.6373 28.1922C70.0616 28.0085 70.5144 27.9167 70.9956 27.9167ZM70.9956 33.2836C71.2553 33.2836 71.4991 33.2361 71.727 33.1411C71.955 33.0398 72.1545 32.9036 72.3255 32.7326C72.4964 32.5617 72.6294 32.3622 72.7244 32.1342C72.8257 31.9062 72.8764 31.6624 72.8764 31.4028C72.8764 31.1432 72.8257 30.8994 72.7244 30.6714C72.6294 30.4434 72.4964 30.2439 72.3255 30.073C72.1545 29.902 71.955 29.769 71.727 29.674C71.4991 29.5727 71.2553 29.522 70.9956 29.522C70.736 29.522 70.4922 29.5727 70.2642 29.674C70.0362 29.769 69.8368 29.902 69.6658 30.073C69.4948 30.2439 69.3587 30.4434 69.2573 30.6714C69.1623 30.8994 69.1149 31.1432 69.1149 31.4028C69.1149 31.6624 69.1623 31.9062 69.2573 32.1342C69.3587 32.3622 69.4948 32.5617 69.6658 32.7326C69.8368 32.9036 70.0362 33.0398 70.2642 33.1411C70.4922 33.2361 70.736 33.2836 70.9956 33.2836Z" fill="#FF0035"/>
<path d="M78.9875 27.9262H80.5928V34.8984H78.8545L76.5748 30.8329V34.8984H74.9695V27.9452H76.7173L78.9875 32.0012V27.9262Z" fill="#FF0035"/>
<path d="M85.8416 29.5315H82.9729V30.5859H85.3002V32.1912H82.9729V33.2931H85.8416V34.8984H81.3676V27.9357L85.8416 27.9262V29.5315Z" fill="#FF0035"/>
<path d="M88.7375 35.0314C88.5159 35.0314 88.2943 34.9997 88.0726 34.9364C87.8573 34.8794 87.6515 34.7876 87.4552 34.6609C87.1132 34.4393 86.8473 34.1543 86.6573 33.806C86.4673 33.4514 86.3723 33.0651 86.3723 32.6471H87.9776C87.9776 32.8371 88.0188 32.9859 88.1011 33.0936C88.1835 33.1949 88.2563 33.2646 88.3196 33.3026C88.4336 33.3786 88.5571 33.4197 88.6901 33.4261C88.823 33.4324 88.9529 33.4071 89.0795 33.3501C89.1682 33.3121 89.2378 33.2646 89.2885 33.2076C89.3455 33.1506 89.3866 33.0968 89.412 33.0461C89.4436 32.9891 89.4626 32.9353 89.469 32.8846C89.4753 32.834 89.4785 32.7928 89.4785 32.7611C89.4785 32.7295 89.4753 32.6883 89.469 32.6376C89.4626 32.587 89.4436 32.5332 89.412 32.4762C89.3866 32.4192 89.3455 32.3653 89.2885 32.3147C89.2378 32.2577 89.1682 32.207 89.0795 32.1627C89.0098 32.131 88.9339 32.1025 88.8515 32.0772C88.7755 32.0519 88.6932 32.0234 88.6046 31.9917C88.4463 31.9411 88.2816 31.8841 88.1106 31.8207C87.9396 31.7574 87.7687 31.6719 87.5977 31.5643C87.376 31.425 87.1892 31.2508 87.0373 31.0418C86.8853 30.8329 86.7745 30.6081 86.7048 30.3674C86.6415 30.1268 86.6193 29.8798 86.6383 29.6265C86.6636 29.3669 86.7365 29.1199 86.8568 28.8856C86.9708 28.6703 87.1132 28.4835 87.2842 28.3252C87.4552 28.1669 87.6452 28.0434 87.8542 27.9547C88.0631 27.8597 88.2879 27.8027 88.5286 27.7837C88.7692 27.7647 89.013 27.7869 89.26 27.8502C89.5006 27.9072 89.7191 27.999 89.9154 28.1257C90.1117 28.246 90.2795 28.3948 90.4188 28.5721C90.5645 28.7431 90.6753 28.9363 90.7513 29.1516C90.8273 29.3669 90.8653 29.5917 90.8653 29.826H89.26C89.26 29.6803 89.2125 29.579 89.1175 29.522C89.0289 29.465 88.9497 29.427 88.88 29.408C88.8674 29.408 88.8357 29.4049 88.785 29.3985C88.7407 29.3859 88.6869 29.3859 88.6236 29.3985C88.5666 29.4049 88.5064 29.427 88.4431 29.465C88.3798 29.4967 88.3291 29.5505 88.2911 29.6265C88.2404 29.7278 88.2309 29.8355 88.2626 29.9495C88.2943 30.0571 88.3576 30.1426 88.4526 30.2059C88.5412 30.2566 88.6394 30.3041 88.747 30.3484C88.8547 30.3864 88.9687 30.4244 89.089 30.4624C89.1967 30.4941 89.3043 30.5289 89.412 30.5669C89.526 30.6049 89.6399 30.6492 89.7539 30.6999C90.1719 30.8899 90.498 31.1685 90.7323 31.5358C90.9729 31.9031 91.0933 32.3115 91.0933 32.7611C91.0933 33.2044 90.9729 33.6097 90.7323 33.977C90.498 34.3443 90.1719 34.6229 89.7539 34.8129C89.5893 34.8889 89.4215 34.9427 89.2505 34.9744C89.0795 35.0124 88.9085 35.0314 88.7375 35.0314Z" fill="#FF0035"/>
<path d="M93.374 34.8984H91.7687V27.9167H93.374V34.8984Z" fill="#FF0035"/>
<path d="M98.3092 34.8984L98.0337 34.053H95.8395L95.5545 34.8984H93.8542L96.229 27.9262H97.7488L100 34.8984H98.3092ZM96.3904 32.4477H97.5208L96.9699 30.7569L96.3904 32.4477Z" fill="#FF0035"/>
<path fill-rule="evenodd" clip-rule="evenodd" d="M44.5938 31.7274C44.356 32.2884 44.1513 32.8774 43.8973 33.4207C43.1837 34.9481 42.134 36.6487 40.9783 37.8647C40.867 37.9816 40.8096 38.001 40.6882 38.1446C40.2166 38.7037 38.8849 39.5867 38.1855 39.9378C34.6775 41.6999 29.8533 40.293 27.1879 37.7886C26.8206 37.4432 25.8983 36.5994 25.6293 36.2798C24.4716 34.9044 23.7532 34.0829 22.648 32.5105C20.1255 28.9225 17.0734 24.7155 13.5492 22.0606C11.5663 20.5668 9.31558 19.5405 6.05356 19.9839C4.06091 20.2545 0.16947 21.4199 0.00644968 23.7495C-0.101556 25.2972 1.16498 25.821 2.45013 26.1475C4.18874 26.5892 6.88322 26.7425 8.39895 27.518C9.08056 27.8671 9.34471 28.1033 9.75448 28.6174C11.4927 30.799 13.1063 33.3353 14.978 35.6229C16.0047 36.8777 17.2801 38.4011 18.4382 39.5256L20.4013 41.2444C20.6441 41.4378 20.8532 41.5826 21.1097 41.7646C22.8879 43.0271 25.6621 44.0327 28.2643 44.3883C33.5154 45.1063 39.3849 43.4774 42.117 39.0479C42.7302 38.0544 43.2533 36.908 43.6958 35.7175C44.0174 34.8523 44.5967 32.7269 44.5938 31.7274Z" fill="#FF0035"/>
<path fill-rule="evenodd" clip-rule="evenodd" d="M30.6388 0.0602195C28.1891 0.490625 27.7057 1.88418 27.6179 4.14745C27.5305 6.4091 27.8938 8.42359 28.1664 10.5946C28.3432 11.9987 27.8732 12.2333 26.6661 12.5068C25.9287 12.6738 24.2289 13.0306 23.5699 12.6977C22.8798 12.349 22.6444 11.269 22.4377 10.3244C22.2241 9.34791 22.0704 8.32691 21.8794 7.32695C21.5684 5.69553 21.0077 2.81538 19.3625 2.79394C18.3161 2.78059 17.3303 3.31657 16.9168 3.85094C15.1455 6.14172 16.6482 10.0413 17.3238 12.455C17.823 14.2405 18.4346 16.0904 19.0689 17.7683C19.405 18.6579 19.6853 19.4556 20.0984 20.2452C20.4454 20.9086 21.0951 21.9615 21.7799 22.1165C22.3337 22.2419 22.7738 21.8479 22.9599 21.5542C23.6888 20.4029 22.9421 18.1045 23.2131 16.6879C23.3992 15.7158 24.0998 15.2526 25.0039 14.9654C25.5957 14.7773 27.4512 14.3906 28.0427 14.5383C28.8768 14.7466 29.0111 15.9982 29.1607 16.9269C29.325 17.9439 29.5139 20.6452 30.5834 20.8159C32.3689 21.1011 32.0304 18.316 32.0862 17.0192C32.1829 14.7781 32.3657 12.62 32.5579 10.417C32.7431 8.28929 32.9741 6.14212 33.2322 4.05482C33.3523 3.08155 33.6602 1.82512 33.1861 0.976044C32.746 0.188856 31.8212 -0.147702 30.6388 0.0602195Z" fill="#FF0035"/>
<path fill-rule="evenodd" clip-rule="evenodd" d="M37.6171 19.9454C37.7814 19.9422 38.4771 20.2326 38.7085 20.3022C39.7291 20.6096 41.8035 21.0178 42.0656 19.7039C42.3488 18.2829 39.2991 17.863 38.0022 17.7582C37.9614 17.5232 38.4828 15.2081 38.5641 14.7615C38.9686 14.8121 42.8435 16.3602 43.3851 14.41C43.8981 12.5634 39.8392 12.6354 38.8408 12.6322L39.4666 8.16065C39.647 8.11858 40.4924 8.37464 40.7708 8.42884C41.2206 8.51622 41.7218 8.59065 42.1971 8.62018C42.6914 8.65052 43.2432 8.64364 43.6845 8.48305C44.0235 8.35927 44.4951 8.06923 44.3892 7.57612C44.1796 6.59922 40.9989 5.92529 39.7732 5.70766C39.7825 4.63408 39.9253 4.00061 38.3275 3.67982C37.0379 3.42093 36.5011 3.9197 36.1965 4.93868C35.9141 5.88363 35.8725 7.09839 35.8603 8.1384C35.8482 9.22291 35.7535 10.3422 35.6876 11.4295C35.5877 13.0779 34.9801 19.9341 35.8365 21.2488C36.0962 21.6476 36.8182 21.464 37.1111 21.1978C37.4335 20.9045 37.5864 20.5304 37.6171 19.9454Z" fill="#FF0035"/>
<path fill-rule="evenodd" clip-rule="evenodd" d="M48.1095 8.69016C47.2422 9.02672 46.7463 10.6492 46.4449 11.7738C46.1059 13.0387 45.8272 14.3898 45.6035 15.7118C45.3721 17.0794 45.161 18.4912 44.9967 19.8868C44.9211 20.5308 44.7411 21.4373 44.9615 22.0311C45.2164 22.718 45.6626 23.133 46.2309 22.4724C46.9963 21.5825 48.3789 16.8865 48.7741 15.5042C49.1786 14.0917 50.2008 10.9737 49.5896 9.55502C49.4088 9.13513 48.8065 8.41954 48.1095 8.69016Z" fill="#FF0035"/>
<path fill-rule="evenodd" clip-rule="evenodd" d="M44.591 24.6803C43.2602 24.9299 42.0891 26.1669 42.3718 27.8266C42.6028 29.1817 43.8997 30.3472 45.5404 30.0652C46.8737 29.8358 48.0282 28.5535 47.7725 26.9391C47.5557 25.5714 46.237 24.3716 44.591 24.6803Z" fill="#FF0035"/>
</svg>
